<svg xmlns="http://www.w3.org/2000/svg" viewBox="0 0 504 504"><circle cx="252" cy="252" r="252" fill="#fd8469"/><path d="M287.1 320.2L265 352.7c-9.6 14.1-29.6 16-41.6 4l-76.2-76.2c-12-12-10.1-32.1 4-41.6l32.6-22.1c9.4-6.4 10.7-19.8 2.6-27.8l-57.1-57.1c-7-7-18.4-7.2-25.4-.2l-.1.1c-.3.3-.7.7-1 1.1-50.3 51-48.6 133.6 2 184.2l83.1 83.1c50.7 50.7 133.1 51.2 184 .7l.5-.5.1-.1c7-7 6.7-18.4-.3-25.4l-57.1-57.1c-8.2-8.3-21.6-7-28 2.4z" fill="#e6e9ee"/><path d="M287.1 320.2l-6.4 9.5 80.4 80.4c3.7-2.9 7.2-6 10.6-9.4l.5-.5.1-.1c7-7 6.7-18.4-.3-25.4l-57.1-57.1c-8-8.1-21.4-6.8-27.8 2.6zM103.8 131.6l-.1.1c-.3.3-.7.7-1 1.1-3.2 3.2-6.1 6.6-8.9 10l80.4 80.4 9.5-6.4c9.4-6.4 10.7-19.8 2.6-27.8l-57.1-57.1c-7-7.1-18.4-7.3-25.4-.3z" fill="#acb3ba"/><path d="M254.9 157.3c2.8-4 4.2-7.8 4.2-11.5s-1.2-6.8-3.7-9.3c-2.4-2.5-5.5-3.7-9.4-3.7-7 0-13.6 5-19.8 14.9L206.4 136c5.2-8 10.9-14.1 17-18.2 6.2-4.1 14.1-6.2 23.6-6.2 9.6 0 18 3 25.2 9.1s10.9 14.4 10.9 24.8c0 5.7-1.5 11.2-4.4 16.4s-8.3 11.9-16.1 20.1l-20 20.8h43.8V225h-78.2v-18.4l32.5-33.3c6.8-6.8 11.4-12.1 14.2-16zm90.5 19.7v-19.3h23.8V177h12.5v21.4h-12.5v26.5h-23.8v-26.5h-44.6v-18.9l39.5-65.5h27l-37.6 63h15.7z" fill="#324a5e"/><path d="M246.7 262.6h-22.8v-24h-12.8V296h12.8v-22.6h22.8V296h12.8v-57.4h-12.8zm73.4-4.9c0-6.7-1.9-11.5-5.7-14.5-3.8-3-10.2-4.5-19.1-4.5h-21.7V296h12.8v-18.3h8.9L308 296h15.8l-14.5-20.5c7.2-2.7 10.8-8.6 10.8-17.8zm-15.4 6.8c-1.6 1.4-4.6 2.1-8.9 2.1h-9.4v-17h9.6c4.1 0 7 .6 8.6 1.7s2.5 3.3 2.5 6.4c0 3.1-.8 5.4-2.4 6.8zm65.5 3.1c-3-2.7-7.2-4.7-12.7-6-5.4-1.3-8.9-2.5-10.4-3.5s-2.3-2.3-2.3-4 .6-3 1.8-4c1.2-1 2.9-1.5 5-1.5 5.3 0 10.4 1.9 15.4 5.7l6.5-9.4c-2.8-2.4-6.2-4.3-10-5.6s-7.7-2-11.5-2c-5.9 0-10.7 1.5-14.6 4.4-3.9 3-5.9 7.2-5.9 12.6 0 5.4 1.5 9.4 4.6 12 3.1 2.5 8 4.6 14.7 6.2 4.2 1 7 2.1 8.4 3.1s2.1 2.4 2.1 4.1-.7 3.1-2 4.1-3.2 1.5-5.5 1.5c-5.2 0-11-2.7-17.1-8.1l-7.6 9.4c7.3 6.7 15.5 10.1 24.5 10.1 6.3 0 11.4-1.6 15.2-4.8 3.9-3.2 5.8-7.4 5.8-12.5.1-5.2-1.4-9.1-4.4-11.8z" fill="#fff"/></svg>