<svg xmlns="http://www.w3.org/2000/svg" viewBox="0 0 504 504"><circle cx="252" cy="252" r="252" fill="#f1543f"/><path d="M502.4 224.1C488.6 98.1 381.8 0 252 0S15.4 98.1 1.6 224.1h500.8z" fill="#ff7058"/><g fill="#324a5e"><path d="M114.8 119h274.4v103.3H114.8z"/><path d="M389.2 178.3V119c-91.2-10.1-183.2-10.1-274.4 0v59.3h274.4z"/></g><path fill="#fff" d="M389.2 222.3l39 63.3H75.8l39-63.3z"/><g fill="#324a5e"><path d="M75.8 259h352.3v94.8H75.8z"/><path d="M75.8 331.6v-72.3c117.1-12.9 235.2-12.9 352.3 0v72.3H75.8zm21.7 41.3H75.8v-19.1h35.1zm309 0h21.7v-19.1h-35.1z"/></g><path d="M355.7 222h-79c-.6 0-1-.5-1-1v-30.5c0-.6.5-1 1-1h79c.6 0 1 .5 1 1V221c0 .5-.4 1-1 1zm-128.4 0h-79c-.6 0-1-.5-1-1v-30.5c0-.6.5-1 1-1h79c.6 0 1 .5 1 1V221c0 .5-.4 1-1 1z" fill="#ffd05b"/></svg>