<svg xmlns="http://www.w3.org/2000/svg" viewBox="0 0 504 504"><circle cx="252" cy="252" r="252" fill="#fd8469"/><path d="M38.2 385.3C82.7 456.6 161.8 504 252 504s169.3-47.4 213.8-118.7H38.2z" fill="#f1543f"/><path d="M299 171.3l-.6-2.1c-.4-1.3-1-3.3-1.6-5.8s-1.4-5.5-2-9c-.3-1.7-.7-3.6-1.1-5.6-.2-1-.3-2-.5-3l-.2-1.6-.1-.8v-.3.5l-.1-.4c-.1-.5-.2-1.2-.3-1.5h-.3c-.3-.3-.5-.7-.8-.9-.6-.6-1.2-1.1-1.9-1.5-1.4-.7-2.9-.6-4-.3-2.6.2-5.2.4-7.8.5-2.8.2-5.6.4-8.4.4-5.6.2-11.4.3-17.1.3-5.7-.1-11.4-.1-17.1-.3-2.8-.1-5.6-.2-8.4-.4-1.4-.1-2.8-.2-4.1-.3l-2-.1-1-.1h-.6.7-1.9c-.1 0 0 0 0 0s.4-.2.1-.1c-.3 0-.6-.1-1 0-.7 0-1.5.2-2.2.6-1.3.8-2.7 1.9-3.4 3.6-.1.1-.2.8-.3 1.3l-.2 1.6c-.2 1-.3 2-.5 3-.4 2-.7 3.8-1.1 5.6-.6 3.5-1.4 6.5-2 9s-1.2 4.5-1.5 5.8c-.4 1.3-.6 2.1-.6 2.1h-10.9v-28.8c.1-5.5 2.3-11.5 6.5-16.1 2.1-2.3 4.8-4.3 7.8-5.7 1.5-.7 3.1-1.2 4.7-1.6.8-.2 1.8-.3 2.7-.5 1-.2 1.4-.1 2.2-.2h67.7c6.9.1 13.4 3.3 17.6 7.9 4.3 4.5 6.5 10.8 6.5 16v28.9H299v-.1z" fill="#ffd05b"/><path d="M286.6 163.9h35.7v14.9h-35.7zm-104.9 0h35.7v14.9h-35.7z" fill="#2b3b4e"/><path d="M398.5 385.5h-293c-2.2 0-4-1.8-4-4V176.4c0-2.2 1.8-4 4-4h293c2.2 0 4 1.8 4 4v205.1c0 2.2-1.8 4-4 4z" fill="#e6e9ee"/><path d="M338.5 172.4h21.4v213.1h-21.4zm-194.3 0h21.4v213.1h-21.4z" fill="#acb3ba"/><path fill="#84dbff" d="M234.1 205.7l-20.8 13.1v58.4h41.5v-58.4z"/><circle cx="234.1" cy="222.2" r="5" fill="#fff"/><path d="M234.1 170.4c-1.1 0-2 .9-2 2v47.7c0 1.1.9 2 2 2s2-.9 2-2v-47.7c-.1-1.1-1-2-2-2z" fill="#324a5e"/></svg>