<svg xmlns="http://www.w3.org/2000/svg" viewBox="0 0 504 504"><circle cx="252" cy="252" r="252" fill="#90dfaa"/><path fill="#324a5e" d="M136.4 146h231.1v262.2H136.4z"/><path fill="#54c0eb" d="M222.7 354.8h58.6v55.1h-58.6z"/><path d="M155 163.7h33.3v45.8H155zm53.6 0h33.3v45.8h-33.3zm53.5 0h33.3v45.8h-33.3zm53.6 0H349v45.8h-33.3zM155 226h33.3v45.8H155zm53.6 0h33.3v45.8h-33.3zm53.5 0h33.3v45.8h-33.3zm53.6 0H349v45.8h-33.3zM155 288.2h33.3V334H155zm53.6 0h33.3V334h-33.3zm53.5 0h33.3V334h-33.3zm53.6 0H349V334h-33.3z" fill="#e6e9ee"/><path fill="#ffd05b" d="M162.1 104.4h179.8v42.8H162.1z"/><path d="M198 112.3h6.1v27.3H198v-10.7h-10.8v10.7H181v-27.3h6.1v11.4H198v-11.4zm39.2 23.5c-2.8 2.7-6.2 4-10.2 4s-7.4-1.3-10.2-4-4.1-6-4.1-10 1.4-7.4 4.1-10c2.8-2.7 6.2-4 10.2-4s7.4 1.3 10.2 4 4.1 6 4.1 10-1.4 7.3-4.1 10zm-2.1-10c0-2.4-.8-4.5-2.3-6.2-1.6-1.7-3.5-2.6-5.8-2.6s-4.2.9-5.8 2.6-2.3 3.8-2.3 6.2.8 4.5 2.3 6.2c1.6 1.7 3.5 2.6 5.8 2.6s4.2-.9 5.8-2.6c1.5-1.7 2.3-3.8 2.3-6.2zm25.6-8.2v22h-6.1v-22h-7.7v-5.3h21.5v5.3h-7.7zm35.3-5.3v5.4h-13.6v5.6h12.2v5.2h-12.2v5.7h14v5.4h-20.1v-27.3H296zm9.2 27.3v-27.3h6.1v21.9H323v5.4h-17.8z" fill="#ff7058"/><path d="M54.3 408.2C100.5 466.5 171.9 504 252 504s151.5-37.5 197.7-95.8H54.3z" fill="#2c9984"/></svg>