<svg xmlns="http://www.w3.org/2000/svg" viewBox="0 0 504 504"><circle cx="252" cy="252" r="252" fill="#ffd05b"/><path d="M120.6 393h262.8V193.4c0-1-.8-1.9-1.9-1.9h-259c-1 0-1.9.8-1.9 1.9V393z" fill="#2b3b4e"/><path d="M333.7 393H170.3V144c0-1.4 1.2-2.6 2.6-2.6h158.2c1.4 0 2.6 1.2 2.6 2.6v249z" fill="#324a5e"/><path fill="#f1543f" d="M235.6 341.9h32.9v35.7h-32.9z"/><path fill="#e6e9ee" d="M107.3 377.6h289.4V393H107.3z"/><path d="M189.4 162.7h125.3v10.9H189.4zm0 29.6h125.3v10.9H189.4zm0 29.7h125.3v10.9H189.4zm0 29.7h125.3v10.9H189.4zm0 29.7h125.3v10.9H189.4zm158.3-73.8h21.9v10.7h-21.9zm0 29h21.9v10.7h-21.9zm0 28.9h21.9v10.7h-21.9zm0 28.9h21.9v10.7h-21.9zm0 28.9h21.9V334h-21.9zM134.4 207.6h21.9v10.7h-21.9zm0 29h21.9v10.7h-21.9zm0 28.9h21.9v10.7h-21.9zm0 28.9h21.9v10.7h-21.9zm0 28.9h21.9V334h-21.9z" fill="#ced5e0"/><path d="M323.3 89.8l6.2 12.7 14 2-10.1 9.8 2.3 13.9-12.4-6.5-12.5 6.5 2.4-13.9-10.1-9.8 13.9-2zm-47.5 0l6.2 12.7 13.9 2-10.1 9.8 2.4 13.9-12.4-6.5-12.5 6.5 2.4-13.9-10.1-9.8 13.9-2zm-47.6 0l6.3 12.7 13.9 2-10.1 9.8 2.4 13.9-12.5-6.5-12.4 6.5 2.4-13.9-10.1-9.8 13.9-2zm-47.5 0l6.3 12.7 13.9 2-10.1 9.8 2.4 13.9-12.5-6.5-12.4 6.5 2.3-13.9-10.1-9.8 14-2z" fill="#f1543f"/><path d="M43.6 393.7C88.9 460.3 165.4 504 252 504s163.1-43.7 208.4-110.3H43.6z" fill="#f9b54c"/></svg>