<svg xmlns="http://www.w3.org/2000/svg" viewBox="0 0 504 504"><circle cx="252" cy="252" r="252" fill="#90dfaa"/><path fill="#fff" d="M183.7 376L75.4 338.2l74.3-158.7 61.7 11.2z"/><path fill="#e6e9ee" d="M183.7 376l114.4-38-21.6-158.5-65.1 11.2z"/><path fill="#fff" d="M434.8 376l-136.7-38-21.6-158.5 68.4 11.2z"/><path d="M326 207.4l-46.9-8.6 15.2 111.7L382 334zm-166.1-6.1l-55 120.4 82.3 25.5 21-137.2z" fill="#84dbff"/><path fill="#54c0eb" d="M279.1 198.8L208.2 210l-21 137.2 107.1-36.7z"/><path d="M331.8 139.9c0 45-81.5 143.3-81.5 143.3s-81.5-98.3-81.5-143.3 36.5-81.5 81.5-81.5 81.5 36.4 81.5 81.5z" fill="#f1543f"/><circle cx="250.2" cy="133.2" r="41.3" fill="#fff"/></svg>