<svg xmlns="http://www.w3.org/2000/svg" viewBox="0 0 504 504"><circle cx="252" cy="252" r="252" fill="#84dbff"/><path d="M133.6 29.5l38.1 213.3-15.5 2.8-37.1-207.7c4.7-3 9.5-5.7 14.5-8.4zM318 174.7L229.4 1c-5.6.5-11.1 1.1-16.6 2l91.1 178.6c3.4-3.6 8.1-6.2 14.1-6.9z" fill="#324a5e"/><path d="M450.4 298.8L396.6 130c-1.7-5.2-7.2-8.1-12.4-6.4L67.9 224.4c-5.2 1.7-8.1 7.2-6.4 12.4l53.7 168.8c1.7 5.2 7.2 8 12.4 6.4l316.3-100.8c5.2-1.7 8.1-7.2 6.5-12.4zm-280.2-32.6c-8 2.6-16.7-1.9-19.2-9.9-2.6-8.1 1.9-16.7 9.9-19.3 8.1-2.6 16.7 1.9 19.3 10 2.5 8.1-2 16.7-10 19.2zM325 216.9c-8 2.6-16.7-1.9-19.2-9.9-2.6-8.1 1.9-16.7 9.9-19.3 8.1-2.6 16.7 1.9 19.3 10 2.5 8-1.9 16.7-10 19.2z" fill="#ff7058"/><g fill="#fff"><path d="M429.4 298.4l-297.2 94.7c-1.7.6-3.6-.4-4.2-2.1L80.3 241.2c-.6-1.7.4-3.6 2.1-4.2l297.2-94.7c1.7-.6 3.6.4 4.2 2.1l47.7 149.7c.6 1.9-.4 3.8-2.1 4.3zm-296.1 87.4l290.9-92.7-45.7-143.4-290.9 92.7 45.7 143.4z"/><path d="M191.2 342.7c-3.9 7.3-9.9 12.3-18.2 14.9-8.2 2.6-16 2.1-23.4-1.6s-12.4-9.6-15-17.8c-2.6-8.2-2-15.9 1.9-23.2 3.9-7.3 9.9-12.3 18.2-14.9 8.2-2.6 16-2.1 23.4 1.6s12.4 9.6 15 17.8c2.7 8.2 2 15.9-1.9 23.2zm-10.7-19.1c-1.6-5-4.5-8.7-8.8-11.2s-8.8-3-13.4-1.5c-4.7 1.5-8 4.5-10.1 9s-2.3 9.3-.7 14.2c1.6 5 4.5 8.7 8.8 11.1 4.3 2.5 8.8 3 13.4 1.5 4.7-1.5 8-4.5 10.1-9 2-4.4 2.3-9.1.7-14.1zm65.8-45.8c5 2.1 8.5 6.6 10.7 13.4 2.2 6.9 1.8 12.6-1.2 17-3 4.5-8.6 8-16.9 10.6l-7.4 2.4 5 15.5-12.4 4-17.7-55.7 19.7-6.3c8.5-2.7 15.3-3 20.2-.9zm-2.1 24.8c1-2.1.9-4.8-.1-8s-2.7-5.2-5.1-5.9c-2.4-.7-5.6-.5-9.7.9l-7.1 2.3 6 18.7 8.4-2.7c4.1-1.4 6.7-3.2 7.6-5.3zm67.8-51.2l3.5 11.1-27.7 8.8 3.7 11.5 24.9-7.9 3.4 10.6-24.9 7.9 3.7 11.6 28.6-9.1 3.5 11-41 13.1-17.7-55.7 40-12.9zm62.4-19.9l12.4-4 17.7 55.7-12.4 4-37.7-26.5 11.1 34.9-12.4 4-17.7-55.7 11.6-3.7 38.8 27.2-11.4-35.9z"/></g><path d="M175.7 252.1c-3.3 0-6.3-2.1-7.4-5.3-1.4-4.1.8-8.6 4.9-10L309 190.1c4.1-1.4 8.6.8 10 4.9 1.4 4.1-.8 8.6-4.9 10l-135.8 46.7c-.9.2-1.7.4-2.6.4z" fill="#324a5e"/></svg>