<?xml version="1.0" encoding="iso-8859-1"?>
<!-- Generator: Adobe Illustrator 19.0.0, SVG Export Plug-In . SVG Version: 6.00 Build 0)  -->
<svg version="1.1" id="Layer_1" xmlns="http://www.w3.org/2000/svg" xmlns:xlink="http://www.w3.org/1999/xlink" x="0px" y="0px"
	 viewBox="0 0 430.11 430.11" style="enable-background:new 0 0 430.11 430.11;" xml:space="preserve">
<g>
	<path style="fill:#F7B239;" d="M388.308,111.105H41.805c-9.531,0-17.258,7.727-17.258,17.258v85.451h381.018v-85.451
		C405.566,118.832,397.839,111.105,388.308,111.105"/>
	<polyline style="fill:#F7B239;" points="424.113,214.404 6.001,214.404 6.001,322.338 424.113,322.338 424.113,214.404 	"/>
	<path style="fill:#F2F2F2;" d="M151.651,176.692H91.114c-19.053,0-34.499,15.445-34.499,34.498v3.214h129.533v-3.214
		C186.149,192.137,170.704,176.692,151.651,176.692"/>
	<path style="fill:#F2F2F2;" d="M339,176.692h-60.537c-19.053,0-34.499,15.445-34.499,34.498v3.214h129.533v-3.214
		C373.497,192.137,358.052,176.692,339,176.692"/>
	<path style="fill:#A17A36;" d="M121.116,176.688h-30c-19.06,0-34.5,15.45-34.5,34.5v0.002c0-19.053,15.446-34.498,34.499-34.498
		h29.508C120.787,176.69,120.951,176.688,121.116,176.688"/>
	<polyline style="fill:#A17A36;" points="86.616,214.404 56.616,214.404 56.616,214.409 86.616,214.409 86.616,214.404 	"/>
	<path style="fill:#9E9E9E;" d="M120.622,176.692H91.114c-19.053,0-34.499,15.445-34.499,34.498v3.214h30v-3.215
		C86.616,192.303,101.79,176.956,120.622,176.692"/>
	<path style="fill:#A17A36;" d="M308.456,176.688h-29.99c-12.019,0-22.598,6.144-28.775,15.459
		c6.177-9.314,16.757-15.455,28.771-15.455h29.499C308.127,176.69,308.291,176.688,308.456,176.688"/>
	<polyline style="fill:#A17A36;" points="273.966,214.404 243.966,214.404 243.966,214.409 273.966,214.409 273.966,214.404 	"/>
	<path style="fill:#9E9E9E;" d="M307.962,176.692h-29.499c-12.014,0-22.594,6.141-28.771,15.455
		c-3.619,5.458-5.726,12.003-5.726,19.041v3.215h30v-3.215C273.966,192.303,289.14,176.956,307.962,176.692"/>
	<path style="fill:#333333;" d="M186.149,220.404H56.616c-3.313,0-6-2.687-6-6v-3.214c0-22.331,18.167-40.498,40.498-40.498h60.537
		c22.331,0,40.499,18.167,40.499,40.498v3.214C192.149,217.717,189.463,220.404,186.149,220.404z M62.751,208.404h117.263
		c-1.405-14.411-13.589-25.712-28.363-25.712H91.114C76.34,182.692,64.156,193.992,62.751,208.404z"/>
	<path style="fill:#333333;" d="M373.497,220.404H243.964c-3.313,0-6-2.687-6-6v-3.214c0-22.331,18.167-40.498,40.499-40.498H339
		c22.331,0,40.498,18.167,40.498,40.498v3.214C379.497,217.717,376.811,220.404,373.497,220.404z M250.1,208.404h117.263
		c-1.405-14.411-13.589-25.712-28.363-25.712h-60.537C263.688,182.692,251.504,193.992,250.1,208.404z"/>
	<path style="fill:#FFFFFF;" d="M378.473,242.831h-0.008l-86.626-0.118c-3.313-0.004-5.996-2.694-5.992-6.008
		c0.004-3.311,2.69-5.992,6-5.992h0.008l86.626,0.118c3.313,0.004,5.996,2.694,5.992,6.008
		C384.468,240.15,381.783,242.831,378.473,242.831z"/>
	<path style="fill:#FFFFFF;" d="M402.87,242.713c-0.39,0-0.79-0.04-1.18-0.12c-0.38-0.07-0.76-0.19-1.12-0.34s-0.71-0.33-1.03-0.55
		c-0.33-0.22-0.64-0.47-0.92-0.75c-0.27-0.27-0.52-0.58-0.74-0.91c-0.22-0.32-0.4-0.67-0.55-1.04c-0.15-0.36-0.27-0.73-0.35-1.12
		c-0.07-0.38-0.11-0.78-0.11-1.17c0-0.39,0.04-0.78,0.11-1.17c0.08-0.38,0.2-0.76,0.35-1.12c0.15-0.37,0.33-0.72,0.55-1.04
		c0.22-0.33,0.47-0.64,0.74-0.91c0.28-0.28,0.59-0.53,0.92-0.75c0.32-0.21,0.67-0.4,1.03-0.55s0.74-0.26,1.12-0.34
		c0.78-0.16,1.58-0.16,2.35,0c0.38,0.08,0.76,0.19,1.12,0.34s0.71,0.34,1.04,0.55c0.33,0.22,0.63,0.47,0.91,0.75
		c0.28,0.27,0.53,0.58,0.75,0.91c0.21,0.32,0.4,0.67,0.55,1.04c0.15,0.36,0.26,0.74,0.34,1.12c0.08,0.39,0.12,0.78,0.12,1.17
		c0,0.39-0.04,0.79-0.12,1.17c-0.08,0.39-0.19,0.76-0.34,1.12c-0.15,0.37-0.34,0.72-0.55,1.04c-0.22,0.33-0.47,0.64-0.75,0.91
		c-0.28,0.28-0.58,0.53-0.91,0.75c-0.33,0.22-0.68,0.4-1.04,0.55c-0.36,0.15-0.74,0.27-1.12,0.34
		C403.65,242.673,403.26,242.713,402.87,242.713z"/>
	<path style="fill:#FFFFFF;" d="M331.707,140.836h-0.003l-204.88-0.118c-3.314-0.002-5.999-2.69-5.997-6.003
		c0.002-3.313,2.688-5.997,6-5.997h0.003l204.88,0.118c3.314,0.002,5.999,2.69,5.997,6.003
		C337.705,138.152,335.019,140.836,331.707,140.836z"/>
	<polyline style="fill:#F7B239;" points="87.197,359.497 47.432,359.497 47.432,322.338 87.197,322.338 87.197,359.497 	"/>
	<polyline style="fill:#F7B239;" points="382.682,359.497 342.917,359.497 342.917,322.338 382.682,322.338 382.682,359.497 	"/>
	<polyline style="fill:#A17A36;" points="87.197,323.413 47.432,323.413 47.432,342.663 87.197,342.663 87.197,323.413 	"/>
	<polyline style="fill:#A17A36;" points="382.682,323.413 342.917,323.413 342.917,342.663 382.682,342.663 382.682,323.413 	"/>
	<rect x="24.548" y="70.61" style="fill:#F7B239;" width="25.73" height="143.205"/>
	<rect x="379.836" y="70.61" style="fill:#F7B239;" width="25.73" height="143.205"/>
	<path style="fill:#333333;" d="M424.11,208.403h-12.54V70.613c0-3.32-2.69-6-6-6h-25.73c-3.32,0-6,2.68-6,6v34.49H56.28v-34.49
		c0-3.32-2.69-6-6-6H24.55c-3.32,0-6,2.68-6,6v137.79H6c-3.31,0-6,2.69-6,6v107.94c0,3.31,2.69,6,6,6h35.432v31.155
		c0,3.313,2.687,6,6,6h39.765c3.313,0,6-2.687,6-6v-31.155h243.72v31.155c0,3.313,2.687,6,6,6h39.765c3.313,0,6-2.687,6-6v-31.155
		h35.428c3.32,0,6-2.69,6-6v-107.94C430.11,211.093,427.43,208.403,424.11,208.403z M385.84,76.613h13.73v131.2h-13.73V76.613z
		 M56.28,117.103h317.56v90.71H56.28V117.103z M30.55,76.613h13.73v131.2H30.55V76.613z M81.197,353.497H53.432v-25.155h27.765
		V353.497z M376.682,353.497h-27.765v-25.155h27.765V353.497z M418.11,316.342H12v-95.94h406.11V316.342z"/>
	<path style="fill:#FFFFFF;" d="M356.103,140.722c-1.58,0-3.13-0.64-4.24-1.76c-0.28-0.28-0.53-0.58-0.75-0.91
		c-0.22-0.33-0.4-0.68-0.55-1.04c-0.15-0.36-0.27-0.74-0.34-1.12c-0.08-0.39-0.12-0.78-0.12-1.17c0-0.4,0.04-0.79,0.12-1.18
		c0.07-0.38,0.19-0.76,0.34-1.12c0.15-0.36,0.33-0.71,0.55-1.03c0.22-0.33,0.47-0.64,0.75-0.92c0.27-0.27,0.58-0.52,0.91-0.74
		c0.32-0.22,0.67-0.4,1.03-0.55s0.74-0.27,1.13-0.35c0.77-0.15,1.57-0.15,2.34,0c0.38,0.08,0.76,0.2,1.12,0.35
		c0.37,0.15,0.71,0.33,1.04,0.55c0.33,0.22,0.63,0.47,0.91,0.74c0.28,0.28,0.53,0.59,0.75,0.92c0.21,0.32,0.4,0.67,0.55,1.03
		c0.15,0.36,0.26,0.74,0.34,1.12c0.08,0.39,0.12,0.78,0.12,1.18c0,0.39-0.04,0.78-0.12,1.17c-0.08,0.38-0.19,0.76-0.34,1.12
		c-0.15,0.36-0.34,0.71-0.55,1.04c-0.22,0.33-0.47,0.63-0.75,0.91s-0.58,0.53-0.91,0.74c-0.33,0.22-0.67,0.41-1.04,0.56
		c-0.36,0.15-0.74,0.26-1.12,0.34C356.883,140.682,356.493,140.722,356.103,140.722z"/>
</g>
<g>
</g>
<g>
</g>
<g>
</g>
<g>
</g>
<g>
</g>
<g>
</g>
<g>
</g>
<g>
</g>
<g>
</g>
<g>
</g>
<g>
</g>
<g>
</g>
<g>
</g>
<g>
</g>
<g>
</g>
</svg>
