<svg xmlns="http://www.w3.org/2000/svg" viewBox="0 0 430.11 430.11"><path d="M388.308 111.105H41.805c-9.531 0-17.258 7.727-17.258 17.258v85.451h381.018v-85.451c.001-9.531-7.726-17.258-17.257-17.258m35.805 103.299H6.001v107.934h418.112V214.404" fill="#f7b239"/><path d="M151.651 176.692H91.114c-19.053 0-34.499 15.445-34.499 34.498v3.214h129.533v-3.214c.001-19.053-15.444-34.498-34.497-34.498m187.349 0h-60.537c-19.053 0-34.499 15.445-34.499 34.498v3.214h129.533v-3.214c0-19.053-15.445-34.498-34.497-34.498" fill="#f2f2f2"/><path d="M121.116 176.688h-30c-19.06 0-34.5 15.45-34.5 34.5v.002c0-19.053 15.446-34.498 34.499-34.498h29.508c.164-.002.328-.004.493-.004m-34.5 37.716h-30v.005h30v-.005" fill="#a17a36"/><path d="M120.622 176.692H91.114c-19.053 0-34.499 15.445-34.499 34.498v3.214h30v-3.215c.001-18.886 15.175-34.233 34.007-34.497" fill="#9e9e9e"/><path d="M308.456 176.688h-29.99c-12.019 0-22.598 6.144-28.775 15.459 6.177-9.314 16.757-15.455 28.771-15.455h29.499c.166-.002.33-.004.495-.004m-34.49 37.716h-30v.005h30v-.005" fill="#a17a36"/><path d="M307.962 176.692h-29.499c-12.014 0-22.594 6.141-28.771 15.455a34.337 34.337 0 0 0-5.726 19.041v3.215h30v-3.215c0-18.885 15.174-34.232 33.996-34.496" fill="#9e9e9e"/><path d="M186.149 220.404H56.616a6 6 0 0 1-6-6v-3.214c0-22.331 18.167-40.498 40.498-40.498h60.537c22.331 0 40.499 18.167 40.499 40.498v3.214a6.002 6.002 0 0 1-6.001 6zm-123.398-12h117.263c-1.405-14.411-13.589-25.712-28.363-25.712H91.114c-14.774 0-26.958 11.3-28.363 25.712zm310.746 12H243.964a6 6 0 0 1-6-6v-3.214c0-22.331 18.167-40.498 40.499-40.498H339c22.331 0 40.498 18.167 40.498 40.498v3.214a6.002 6.002 0 0 1-6.001 6zm-123.397-12h117.263c-1.405-14.411-13.589-25.712-28.363-25.712h-60.537c-14.775 0-26.959 11.3-28.363 25.712z" fill="#333"/><path d="M378.473 242.831h-.008l-86.626-.118a6 6 0 0 1 .008-12h.008l86.626.118a6 6 0 0 1-.008 12zm24.397-.118c-.39 0-.79-.04-1.18-.12-.38-.07-.76-.19-1.12-.34s-.71-.33-1.03-.55c-.33-.22-.64-.47-.92-.75-.27-.27-.52-.58-.74-.91-.22-.32-.4-.67-.55-1.04-.15-.36-.27-.73-.35-1.12a6.53 6.53 0 0 1-.11-1.17c0-.39.04-.78.11-1.17.08-.38.2-.76.35-1.12.15-.37.33-.72.55-1.04.22-.33.47-.64.74-.91a6.028 6.028 0 0 1 1.95-1.3c.36-.15.74-.26 1.12-.34.78-.16 1.58-.16 2.35 0 .38.08.76.19 1.12.34s.71.34 1.04.55c.33.22.63.47.91.75.28.27.53.58.75.91.21.32.4.67.55 1.04.15.36.26.74.34 1.12a5.809 5.809 0 0 1 0 2.34c-.08.39-.19.76-.34 1.12-.15.37-.34.72-.55 1.04-.22.33-.47.64-.75.91-.28.28-.58.53-.91.75-.33.22-.68.4-1.04.55-.36.15-.74.27-1.12.34-.39.08-.78.12-1.17.12zm-71.163-101.877h-.003l-204.88-.118a6 6 0 0 1 .003-12h.003l204.88.118a6 6 0 0 1-.003 12z" fill="#fff"/><path fill="#f7b239" d="M87.197 359.497H47.432v-37.159h39.765v37.159m295.485 0h-39.765v-37.159h39.765v37.159"/><path fill="#a17a36" d="M87.197 323.413H47.432v19.25h39.765v-19.25m295.485 0h-39.765v19.25h39.765v-19.25"/><path fill="#f7b239" d="M24.548 70.61h25.73v143.205h-25.73zm355.288 0h25.73v143.205h-25.73z"/><path d="M424.11 208.403h-12.54V70.613c0-3.32-2.69-6-6-6h-25.73c-3.32 0-6 2.68-6 6v34.49H56.28v-34.49c0-3.32-2.69-6-6-6H24.55c-3.32 0-6 2.68-6 6v137.79H6c-3.31 0-6 2.69-6 6v107.94c0 3.31 2.69 6 6 6h35.432v31.155a6 6 0 0 0 6 6h39.765a6 6 0 0 0 6-6v-31.155h243.72v31.155a6 6 0 0 0 6 6h39.765a6 6 0 0 0 6-6v-31.155h35.428c3.32 0 6-2.69 6-6v-107.94c0-3.31-2.68-6-6-6zm-38.27-131.79h13.73v131.2h-13.73v-131.2zm-329.56 40.49h317.56v90.71H56.28v-90.71zm-25.73-40.49h13.73v131.2H30.55v-131.2zm50.647 276.884H53.432v-25.155h27.765v25.155zm295.485 0h-27.765v-25.155h27.765v25.155zm41.428-37.155H12v-95.94h406.11v95.94z" fill="#333"/><path d="M356.103 140.722a6.012 6.012 0 0 1-4.99-2.67c-.22-.33-.4-.68-.55-1.04a5.56 5.56 0 0 1-.34-1.12 5.809 5.809 0 0 1 0-2.35c.07-.38.19-.76.34-1.12.15-.36.33-.71.55-1.03.22-.33.47-.64.75-.92.27-.27.58-.52.91-.74.32-.22.67-.4 1.03-.55s.74-.27 1.13-.35a6.14 6.14 0 0 1 2.34 0c.38.08.76.2 1.12.35.37.15.71.33 1.04.55.33.22.63.47.91.74a6.028 6.028 0 0 1 1.3 1.95c.15.36.26.74.34 1.12a5.833 5.833 0 0 1 0 2.35c-.08.38-.19.76-.34 1.12-.15.36-.34.71-.55 1.04-.22.33-.47.63-.75.91s-.58.53-.91.74c-.33.22-.67.41-1.04.56-.36.15-.74.26-1.12.34-.39.08-.78.12-1.17.12z" fill="#fff"/></svg>